<svg id="Layer_1" data-name="Layer 1" xmlns="http://www.w3.org/2000/svg" xmlns:xlink="http://www.w3.org/1999/xlink" viewBox="0 0 400 300"><defs><linearGradient id="linear-gradient" x1="106.58" y1="187.21" x2="149.95" y2="158.78" gradientUnits="userSpaceOnUse"><stop offset="0" stop-color="#fff" stop-opacity="0"/><stop offset="0.98" stop-color="#aa6800"/></linearGradient><linearGradient id="linear-gradient-2" x1="205.44" y1="262.51" x2="217.26" y2="253.2" xlink:href="#linear-gradient"/><linearGradient id="linear-gradient-3" x1="167.52" y1="234.59" x2="187.04" y2="209.14" xlink:href="#linear-gradient"/></defs><title>61-70</title><polygon points="45.64 175.48 231.21 278.93 333.03 210.71 157.42 113.95 45.64 175.48" fill="#faefec"/><path d="M144.55,152.39,88.62,183.77,109.09,196l54.71-31.09C156.4,159.91,151,158.59,144.55,152.39Z" opacity="0.32" fill="url(#linear-gradient)"/><path d="M249.84,224l-55.38,32.51,12.9,7.14,54.71-31.09C254.67,227.55,256.25,230.18,249.84,224Z" opacity="0.32" fill="url(#linear-gradient-2)"/><path d="M203.24,173.78,133.54,218,175.72,242l58.14-33C226.46,204,209.64,180,203.24,173.78Z" opacity="0.32" fill="url(#linear-gradient-3)"/><path d="M173.7,178.15c.54.88,42.6,24.44,42.6,24.44l29.12-16.33,13.2-7.69-16.23-9.41C238.64,167,216.19,154,216.19,154Z" fill="#ffc65a"/><polygon points="216.3 202.58 216.3 218.89 258.62 194.39 258.62 178.57 216.3 202.58" fill="#fa8e00"/><polygon points="173.7 178.15 173.7 194.43 216.3 218.89 216.3 202.58 173.7 178.15" fill="#ff9d27"/><path d="M242.11,168.89s5.74,8.4,3.86,16.87c0,0,7.9-5.52,10-14.71C255.93,171,247.48,170.93,242.11,168.89Z" fill="#ffa84a"/><polygon points="333.03 131.02 277.57 99.97 277.57 141.86 333.03 173.78 333.03 131.02" fill="#ffc3ca"/><polygon points="232.38 92.7 263.5 110.9 263.5 153.99 232.38 135.35 232.38 92.7" fill="#ff876a"/><path d="M236,57.9s.08,22.73-4.05,27.25l17.21,10a17.85,17.85,0,0,0,3.48-7.83c.37-2.56,1.62-19.49,1.62-19.49Z" fill="#ffc65a"/><path d="M257,70.06s.08,22.73-4.05,27.25l17.21,10a17.85,17.85,0,0,0,3.48-7.83C274.06,97,275.31,80,275.31,80Z" fill="#ffc65a"/><path d="M160.71,16l65.54,37.84s1.5,56.62-14.91,71.17L147.05,87.71S163.31,58.51,160.71,16Z" fill="#263238"/><polygon points="213.16 44.28 219.41 39.95 231.21 72.92 223.75 75.86 213.16 44.28" fill="#ffc65a"/><polygon points="156.4 32.75 177.22 18.52 170.8 12.97 154.14 25.46 156.4 32.75" fill="#ffc65a"/><polygon points="288.77 102.54 288.77 110.89 320.26 128.03 320.26 120.43 288.77 102.54" fill="#263238"/><circle cx="266.58" cy="74.82" r="2.9" fill="#e28133"/><circle cx="245.04" cy="62.56" r="2.9" fill="#e28133"/><path d="M161.63,69.08s-.46-3.11,0-4.31a26.09,26.09,0,0,0,.73-4.54,1.26,1.26,0,0,1,1.46.79c.44,1-.47,3.62-.47,3.62s2.58,5.36,0,7.79S161.63,69.08,161.63,69.08Z" fill="#ffac99"/><path d="M144.51,85.8l17.12-16.71s3.88,8.43,0,12.29L145.92,97" fill="#ffc3ca"/><path d="M141.31,154.92s-2.37,3.28-2.17,5.2,3.21,5.15,3.89,6.52.87,2,0,3-8.24-5.43-8.41-6.46,1-5,1-5l-3.27,4.14L130,160.91l5.06-8.51" fill="#ea7554"/><path d="M142.24,169.7c-.2-.2-6-2.22-6-2.22s-2.74-2.86-2.67-3.94,1.08-5.41,2.11-5.37,1.14,5.77,1.14,5.77Z" fill="#af4127"/><path d="M149.19,160.35l.75,8.74s1.89,1.38,2.35,1.26,1.85-.48,1.87-.7-.67-6.18-.47-6.33,3.09,4.55,4,4.65,7.83-3.93,7.17-5.46-4-.73-5.66-.74A5.79,5.79,0,0,1,154,158" fill="#ea7554"/><path d="M153.57,136.68l4.23,22.4s-2.44,3.19-11.18,2.79L140.13,146" fill="#ff876a"/><path d="M155.44,101.54s6.52,9.51,4.51,24.91c-1.78,13.65-15.41,29.73-15.41,29.73S140.47,158,132,150l9.37-14.89s-9.13-21.14,1.65-34.58" fill="#ff876a"/><g opacity="0.55"><path d="M173.27,81c-.46-5.44,1.79-9.92,5.12-10.2s6.3,3.76,6.76,9.2S183.36,90,180,90.24,173.73,86.48,173.27,81Zm1.81-.15c.36,4.28,2.56,7.73,4.8,7.54s3.83-4,3.47-8.24-2.56-7.73-4.8-7.54S174.71,76.61,175.07,80.89Z" fill="#f2f2f2"/></g><path d="M173.82,83.29a1,1,0,0,1,1.9,0c0,.64,0,1.28,0,1.92l.21-.42a27.46,27.46,0,0,0,1.66-5.5c.23-1.22,2-.67,1.83.51a19.09,19.09,0,0,1-.58,2.74l.19-.08a1.25,1.25,0,0,1,1.6.88,1.77,1.77,0,0,1,0,.9l.14,0a1.38,1.38,0,0,1,.69,2.12,1.26,1.26,0,0,1,.46.74,1.84,1.84,0,0,1-.81,1.74c-.66.54-1.37,1.25-2,1.83-.78.76-1.67,1.52-2.41,2.14s-1.94-1.41-2-2.09a.87.87,0,0,1-1.14-.89Q173.89,86.59,173.82,83.29Z" fill="#ffac99"/><path d="M177.62,85.32q.67-1.4,1.24-2.85c.08-.2.41-.12.33.09q-.58,1.49-1.28,2.93C177.82,85.7,177.52,85.52,177.62,85.32Z" fill="#af594a"/><path d="M154.45,80.54a31.33,31.33,0,0,1,4.4,4.86c1.23,2,6.16,7.43,8.19,5.79s5.63-4.76,5.63-4.76,5.13,3.53,4.6,7.21c0,0-4.56,9.32-11.67,7.26s-8.88-4.74-8.88-4.74l-1.07,6.06s-8.82,2.76-12.91-1.34c0,0-2.69-17.41-.71-20" fill="#ffc3ca"/><path d="M155.43,70c.07.2.22,6.52-1.93,7.12s-5.8-.9-6.74-2.9.41-8.38,3.79-8.75S154.83,68.16,155.43,70Z" fill="#ffac99"/><path d="M152.83,71.17c-1.41,1-.52,2.78.08,3.95a6.06,6.06,0,0,1,.63,2.88,3.78,3.78,0,0,0,.92,2.54,10.06,10.06,0,0,1,1.2,1.92,28.47,28.47,0,0,1-9.49.12,73.59,73.59,0,0,1-7.73-1,4.65,4.65,0,0,1,.37-1.59c.61-1.39,1.61-2.14,1.37-3.78a7.65,7.65,0,0,1-.06-3.76c.46-1.29,1.55-1.89,2.59-2.65a6.63,6.63,0,0,0,.85-.74l.22-.37a18.42,18.42,0,0,1,1.91-3.24,5.61,5.61,0,0,1,3.06-1.57,9.11,9.11,0,0,1,7,1.6s1.84,1.77,1.26,3.67S154.1,70.31,152.83,71.17Z" fill="#e28133"/><path d="M154.45,141.3s-7.46,12.92-9.9,14.88l2.08,5.68S155.29,149.7,154.45,141.3Z" fill="#ea7554"/><path d="M141.5,134.38a40.68,40.68,0,0,0,3.89-16.06c0-.44.7-.44.69,0a41.55,41.55,0,0,1-4,16.41C141.91,135.13,141.31,134.78,141.5,134.38Z" fill="#ea7554"/><polyline points="283.76 205.37 301.65 202.58 286.08 218.45" fill="#ffc65a"/><ellipse cx="283.76" cy="212.25" rx="5.31" ry="6.89" fill="#263238"/><polygon points="222.98 254.74 286.08 218.45 281.77 205.87 218.45 242.3 222.98 254.74" fill="#263238"/><ellipse cx="220.91" cy="248.4" rx="5.31" ry="6.89" fill="#263238"/><ellipse cx="220.91" cy="248.4" rx="5.31" ry="6.89" fill="#505a63" opacity="0.52"/><path d="M301.65,202.58l-6.76,1.05s2.53.85,1.8,4Z" fill="#895415"/></svg>